<?xml version="1.0" encoding="UTF-8" standalone="no"?>
<svg width="11px" height="14px" viewBox="0 0 11 14" version="1.1" xmlns="http://www.w3.org/2000/svg" xmlns:xlink="http://www.w3.org/1999/xlink">
    <!-- Generator: Sketch 46 (44423) - http://www.bohemiancoding.com/sketch -->
    <title>Fill-16</title>
    <desc>Created with Sketch.</desc>
    <defs></defs>
    <g id="V2" stroke="none" stroke-width="1" fill="none" fill-rule="evenodd">
        <g id="Artboard-1-Copy-48" transform="translate(-1338.000000, -106.000000)" fill-rule="nonzero" fill="#FFFFFF">
            <g id="Side-Panel" transform="translate(909.000000, 96.000000)">
                <g id="Rectangle-2-+-arrow-+-Boxit-Copy-4">
                    <g id="copy_16" transform="translate(429.000000, 10.000000)">
                        <path d="M4,13 L4,4 L10,4 L10,13 L4,13 Z M3.75,3 C3.337,3 3,3.336 3,3.749 L3,13.25 C3,13.663 3.337,14 3.75,14 L10.25,14 C10.664,14 11,13.663 11,13.25 L11,3.749 C11,3.336 10.664,3 10.25,3 L3.75,3 Z M0.75,0 L7.25,0 C7.664,0 8,0.336 8,0.749 L8,3 L7,3 L7,1 L1,1 L1,10 L3,10 L3,11 L0.75,11 C0.337,11 7.90478794e-14,10.663 7.90478794e-14,10.25 L7.90478794e-14,0.749 C7.90478794e-14,0.336 0.337,0 0.75,0 Z M5,6 L9,6 L9,7 L5,7 L5,6 Z M5,8 L9,8 L9,9 L5,9 L5,8 Z" id="Fill-16"></path>
                    </g>
                </g>
            </g>
        </g>
    </g>
</svg>