<?xml version="1.0" encoding="UTF-8"?>
<svg width="14px" height="14px" viewBox="0 0 14 14" version="1.1" xmlns="http://www.w3.org/2000/svg" xmlns:xlink="http://www.w3.org/1999/xlink">
    <!-- Generator: Sketch 43.1 (39012) - http://www.bohemiancoding.com/sketch -->
    <title>shortcuts</title>
    <desc>Created with Sketch.</desc>
    <defs></defs>
    <g id="V2" stroke="none" stroke-width="1" fill="none" fill-rule="evenodd">
        <g id="Artboard-1-Copy-51" transform="translate(-1411.000000, -871.000000)" fill="#FFFFFF">
            <g id="shortcuts" transform="translate(1411.000000, 871.000000)">
                <path d="M5,9 L9,9 L9,5 L5,5 L5,9 Z M10,10 L10,11.5 C10,12.328 10.672,13 11.5,13 C12.328,13 13,12.328 13,11.5 C13,10.672 12.328,10 11.5,10 L10,10 Z M4,10 L2.5,10 C1.672,10 1,10.672 1,11.5 C1,12.328 1.672,13 2.5,13 C3.328,13 4,12.328 4,11.5 L4,10 Z M9,11.5 C9,12.881 10.119,14 11.5,14 C12.881,14 14,12.881 14,11.5 C14,10.119 12.881,9 11.5,9 L10,9 L10,5 L11.5,5 C12.881,5 14,3.881 14,2.5 C14,1.119 12.881,0 11.5,0 C10.119,0 9,1.119 9,2.5 L9,4 L5,4 L5,2.5 C5,1.119 3.881,0 2.5,0 C1.119,0 0,1.119 0,2.5 C0,3.881 1.119,5 2.5,5 L4,5 L4,9 L2.5,9 C1.119,9 0,10.119 0,11.5 C0,12.881 1.119,14 2.5,14 C3.881,14 5,12.881 5,11.5 L5,10 L9,10 L9,11.5 Z M10,4 L11.5,4 C12.328,4 13,3.328 13,2.5 C13,1.672 12.328,1 11.5,1 C10.672,1 10,1.672 10,2.5 L10,4 Z M2.5,4 C1.672,4 1,3.328 1,2.5 C1,1.672 1.672,1 2.5,1 C3.328,1 4,1.672 4,2.5 L4,4 L2.5,4 Z"></path>
            </g>
        </g>
    </g>
</svg>