<?xml version="1.0" encoding="UTF-8" standalone="no"?>
<svg width="12px" height="14px" viewBox="0 0 12 14" version="1.1" xmlns="http://www.w3.org/2000/svg" xmlns:xlink="http://www.w3.org/1999/xlink">
    <!-- Generator: Sketch 46 (44423) - http://www.bohemiancoding.com/sketch -->
    <title>delete_16</title>
    <desc>Created with Sketch.</desc>
    <defs></defs>
    <g id="V2" stroke="none" stroke-width="1" fill="none" fill-rule="evenodd">
        <g id="Artboard-1-Copy-70" transform="translate(-1320.000000, -871.000000)">
            <g id="Group-2" transform="translate(1318.000000, 870.000000)">
                <g id="delete_16">
                    <g id="Delete_16px_1px_V2-Copy">
                        <rect id="Rectangle-path" x="0" y="0" width="16" height="16"></rect>
                        <rect id="Rectangle-path" fill="#FFFFFF" fill-rule="nonzero" x="6" y="6" width="1" height="6"></rect>
                        <rect id="Rectangle-path" fill="#FFFFFF" fill-rule="nonzero" x="9" y="6" width="1" height="6"></rect>
                        <path d="M10.5,3 L10.5,2 C10.5,1.4 10,1 9.3,1 L6.7,1 C6,1 5.5,1.4 5.5,2 L5.5,3 L2,3 L2,4 L3,4 L3,14 C3,14.6 3.4,15 4,15 L12,15 C12.6,15 13,14.6 13,14 L13,4 L14,4 L14,3 L10.5,3 Z M9.5,2 L9.5,3 L6.5,3 L6.5,2 L9.5,2 Z M12,14 L4,14 L4,4 L12,4 L12,14 Z" id="Shape" fill="#FFFFFF" fill-rule="nonzero"></path>
                    </g>
                </g>
            </g>
        </g>
    </g>
</svg>