<?xml version="1.0" encoding="UTF-8"?>
<svg width="16px" height="14px" viewBox="0 0 16 14" version="1.1" xmlns="http://www.w3.org/2000/svg" xmlns:xlink="http://www.w3.org/1999/xlink">
    <!-- Generator: Sketch 43.1 (39012) - http://www.bohemiancoding.com/sketch -->
    <title>hide</title>
    <desc>Created with Sketch.</desc>
    <defs></defs>
    <g id="V2" stroke="none" stroke-width="1" fill="none" fill-rule="evenodd">
        <g id="Artboard-1-Copy-52" transform="translate(-1363.000000, -269.000000)">
            <g id="Side-Panel" transform="translate(905.000000, 96.000000)">
                <g id="Rectangle-2-+-arrow-+-Boxit-Copy-2" transform="translate(4.000000, 144.000000)">
                    <g id="hide" transform="translate(454.000000, 29.000000)">
                        <path d="M0.549424756,7.00300573 C0.617433557,6.86714025 0.71478083,6.68934273 0.843057312,6.47985066 C1.1819491,5.92639657 1.60911467,5.37188812 2.1299721,4.85485305 C3.61462048,3.38109991 5.54652644,2.5 8,2.5 C10.4534736,2.5 12.3853795,3.38109991 13.8700279,4.85485305 C14.3908853,5.37188812 14.8180509,5.92639657 15.1569427,6.47985066 C15.2852192,6.68934273 15.3825664,6.86714025 15.4505752,7.00300573 C15.3845408,7.13832139 15.2897975,7.31529998 15.1645632,7.52379012 C14.8326386,8.07637812 14.411526,8.63006188 13.8950042,9.14637527 C12.4216886,10.6190964 10.4840563,11.5 8,11.5 C5.51594369,11.5 3.57831141,10.6190964 2.10499578,9.14637527 C1.58847397,8.63006188 1.16736141,8.07637812 0.835436843,7.52379012 C0.710202488,7.31529998 0.615459188,7.13832139 0.549424756,7.00300573 Z" id="Oval-2" stroke="#FFFFFF"></path>
                        <circle id="Oval-3" fill="#FFFFFF" cx="8" cy="7" r="3"></circle>
                        <polygon id="Fill-8-Copy" fill="#FFFFFF" fill-rule="nonzero" points="1.75 14 1 13.25 14.25 0 15 0.75"></polygon>
                    </g>
                </g>
            </g>
        </g>
    </g>
</svg>