<?xml version="1.0" encoding="UTF-8" standalone="no"?>
<svg width="10px" height="12px" viewBox="0 0 10 12" version="1.1" xmlns="http://www.w3.org/2000/svg" xmlns:xlink="http://www.w3.org/1999/xlink">
    <!-- Generator: Sketch 45.1 (43504) - http://www.bohemiancoding.com/sketch -->
    <title>play_16</title>
    <desc>Created with Sketch.</desc>
    <defs></defs>
    <g id="V2" stroke="none" stroke-width="1" fill="none" fill-rule="evenodd">
        <g id="Artboard-1-Copy-54" transform="translate(-1154.000000, -30.000000)" fill="#FFFFFF">
            <g id="Header">
                <g id="Small-secondary-rest-Copy-2" transform="translate(1143.000000, 20.000000)">
                    <g id="16-1px-Stroke/ChevronRight" transform="translate(8.000000, 8.000000)">
                        <g id="ChevronRight_16px_1px" transform="translate(3.000000, 2.000000)">
                            <path d="M0.749999881,11.8817658 C0.351219177,12.1241265 5.28723969e-13,11.999866 7.11900974e-12,11.5216987 C-3.39774617e-13,11.5216987 1.02768438e-12,0.526744857 2.57170537e-12,0.479612042 C5.57565662e-12,-0.000478781673 0.407161713,-0.11404394 0.749999881,0.119543781 C0.752892011,0.121514291 9.76351351,5.56420899 9.76351351,5.56420899 C9.90600586,5.66162618 10,5.78243204 10,6.00065509 C10,6.21887814 9.90430832,6.3361677 9.76351351,6.43710077 C9.76351351,6.43710077 0.752242804,11.8817658 0.749999881,11.8817658 Z M1.55499992,10.1155618 C1.55665968,10.1155618 8.22500009,6.30429645 8.22500009,6.30429645 C8.32918825,6.2336433 8.4000001,6.15154061 8.4000001,5.99878448 C8.4000001,5.84602836 8.33044443,5.76146426 8.22500009,5.69327223 C8.22500009,5.69327223 1.5571401,1.88338611 1.55499992,1.88200676 C1.30129967,1.71849536 1,1.79799097 1,2.13405453 C1,2.1670475 1,9.86351484 1,9.86351484 C1,10.1982319 1.25990219,10.2852143 1.55499992,10.1155618 Z" id="Combined-Shape" fill-rule="nonzero"></path>
                        </g>
                    </g>
                </g>
            </g>
        </g>
    </g>
</svg>