<?xml version="1.0" encoding="UTF-8" standalone="no"?>
<svg width="12px" height="13px" viewBox="0 0 12 13" version="1.1" xmlns="http://www.w3.org/2000/svg" xmlns:xlink="http://www.w3.org/1999/xlink">
    <!-- Generator: Sketch 45.1 (43504) - http://www.bohemiancoding.com/sketch -->
    <title>share_16</title>
    <desc>Created with Sketch.</desc>
    <defs></defs>
    <g id="V2" stroke="none" stroke-width="1" fill="none" fill-rule="evenodd">
        <g id="Artboard-1-Copy-54" transform="translate(-1065.000000, -30.000000)" fill-rule="nonzero" fill="#FFFFFF">
            <g id="Header">
                <g id="Group-4" transform="translate(1063.000000, 28.000000)">
                    <g id="share_16">
                        <path d="M10.554,9.075 C11.454,8.326 12,7.204 12,6 C12,3.794 10.205,2 8,2 C5.794,2 4,3.794 4,6 C4,7.204 4.545,8.326 5.447,9.075 C3.374,10.05 2,12.152 2,14.5 L2,15 L3,15 L3,14.5 C3,12.245 4.523,10.262 6.702,9.676 L7,9.596 L7,8.837 L6.777,8.737 C5.698,8.254 5,7.179 5,6 C5,4.346 6.346,3 8,3 C9.655,3 11,4.346 11,6 C11,7.179 10.302,8.254 9.223,8.737 L9,8.837 L9,9.596 L9.297,9.676 C11.478,10.262 13,12.245 13,14.5 L13,15 L14,15 L14,14.5 C14,12.152 12.625,10.05 10.554,9.075" id="Fill-6"></path>
                    </g>
                </g>
            </g>
        </g>
    </g>
</svg>