<?xml version="1.0" encoding="UTF-8"?>
<svg width="16px" height="13px" viewBox="0 0 16 13" version="1.1" xmlns="http://www.w3.org/2000/svg" xmlns:xlink="http://www.w3.org/1999/xlink">
    <!-- Generator: Sketch 43.1 (39012) - http://www.bohemiancoding.com/sketch -->
    <title>timeline</title>
    <desc>Created with Sketch.</desc>
    <defs></defs>
    <g id="V2" stroke="none" stroke-width="1" fill="none" fill-rule="evenodd">
        <g id="Artboard-1-Copy-51" transform="translate(-1410.000000, -88.000000)" fill="#FFFFFF">
            <g id="timeline" transform="translate(1410.000000, 88.000000)">
                <rect id="Rectangle-4" x="1" y="1" width="14" height="1"></rect>
                <polygon id="Rectangle-4-Copy-3" points="1.5 0 3 1.5 1.5 3 0 1.5"></polygon>
                <polygon id="Rectangle-4-Copy-5" points="5.5 0 7 1.5 5.5 3 4 1.5"></polygon>
                <polygon id="Rectangle-4-Copy-4" points="14.5 0 16 1.5 14.5 3 13 1.5"></polygon>
                <polygon id="Rectangle-4-Copy-8" points="1.5 5 3 6.5 1.5 8 0 6.5"></polygon>
                <polygon id="Rectangle-4-Copy-7" points="5.5 5 7 6.5 5.5 8 4 6.5"></polygon>
                <polygon id="Rectangle-4-Copy-6" points="14.5 5 16 6.5 14.5 8 13 6.5"></polygon>
                <polygon id="Rectangle-4-Copy-10" points="5.5 10 7 11.5 5.5 13 4 11.5"></polygon>
                <polygon id="Rectangle-4-Copy-9" points="14.5 10 16 11.5 14.5 13 13 11.5"></polygon>
                <rect id="Rectangle-4-Copy" x="1" y="6" width="14" height="1"></rect>
                <rect id="Rectangle-4-Copy-2" x="1" y="11" width="14" height="1"></rect>
            </g>
        </g>
    </g>
</svg>